PathFileType	4	(x/y/z)	S08_P20_T05
DataRate	CameraRate	NumFrames	NumMarkers	Units	OrigDataRate	OrigDataStartFrame	OrigNumFrames
240	240	7	51	mm	240	243	388
Frame#	Time	Sternum			R.Acromium			L.Acromium			Top.Head			R.ASIS			L.ASIS			R.PSIS			L.PSIS			R.Great.Tro			L.Great.Tro			R.Iliac.Crest			L.Iliac.Crest			V.Sacral			R.Thigh.Upper.Post			R.Thigh.Lower.Ant			R.Thigh.Lower.Post			R.Thigh.Upper.Ant			R.Knee.Lat			R.Knee.Med			R.Shank.Upper.Post			R.Shank.Lower.Ant			R.Shank.Lower.Post			R.Shank.Upper.Ant			R.Ankle.Lat			R.Ankle.Med			R.Heel.Upper			R.Heel.Med			R.Heel.Lat			R.Toe.Lat			R.Toe.Med			R.Toe.Tip			L.Thigh.Upper.Post			L.Thigh.Lower.Ant			L.Thigh.Lower.Post			L.Thigh.Upper.Ant			L.Knee.Lat			L.Knee.Med			L.Shank.Upper.Post			L.Shank.Lower.Ant			L.Shank.Lower.Post			L.Shank.Upper.Ant			L.Ankle.Lat			L.Ankle.Med			L.Heel.Upper			L.Heel.Med			L.Heel.Lat			L.Toe.Lat			L.Toe.Med			L.Toe.Tip			Cervical.Spine			Back			
		X1	Y1	Z1	X2	Y2	Z2	X3	Y3	Z3	X4	Y4	Z4	X5	Y5	Z5	X6	Y6	Z6	X7	Y7	Z7	X8	Y8	Z8	X9	Y9	Z9	X10	Y10	Z10	X11	Y11	Z11	X12	Y12	Z12	X13	Y13	Z13	X14	Y14	Z14	X15	Y15	Z15	X16	Y16	Z16	X17	Y17	Z17	X18	Y18	Z18	X19	Y19	Z19	X20	Y20	Z20	X21	Y21	Z21	X22	Y22	Z22	X23	Y23	Z23	X24	Y24	Z24	X25	Y25	Z25	X26	Y26	Z26	X27	Y27	Z27	X28	Y28	Z28	X29	Y29	Z29	X30	Y30	Z30	X31	Y31	Z31	X32	Y32	Z32	X33	Y33	Z33	X34	Y34	Z34	X35	Y35	Z35	X36	Y36	Z36	X37	Y37	Z37	X38	Y38	Z38	X39	Y39	Z39	X40	Y40	Z40	X41	Y41	Z41	X42	Y42	Z42	X43	Y43	Z43	X44	Y44	Z44	X45	Y45	Z45	X46	Y46	Z46	X47	Y47	Z47	X48	Y48	Z48	X49	Y49	Z49	X50	Y50	Z50	X51	Y51	Z51	

243	1.0083	-5.9276	1210	293.03	-115.49	1446.2	473.45	-144.2	1472.5	136.84	-110.77	1769.6	326.77	-37.747	997.96	410.03	-32.213	1004.5	178.51	-235.56	1020.4	328.06	-231.21	1023.7	234.88	-116.71	889.31	476.6	-106.09	893.15	107.39	-133.59	1065.8	453.25	-129.86	1082.5	144.22	-249.52	981.26	280.65	-166.87	692.13	456.56	-97.144	585.74	431.73	-166.75	602.64	438.13	-89.492	679.15	451.78	-153.58	495.58	425.29	-161.44	500.62	297.36	-312.18	381.27	424.1	-299.32	293.83	405.84	-358.06	320.2	415.19	-252.93	355.74	417.74	-457.6	184.41	378.85	-418.63	180.55	302.76	-512.43	186.57	326.53	-516.46	162.61	295.67	-526.09	161.51	356.96	NaN	NaN	NaN	-373.88	57.288	283.73	-318.97	39.98	330.66	-56.881	683.03	130.83	54.264	628.01	156.61	-11.442	606.44	151.85	13.085	703.37	129.91	36.22	520.61	171.32	35.92	523.59	296.73	8.9544	333.71	171.16	87.503	258.05	196.95	16.013	261.61	187.79	73.876	331.59	180.48	62.45	96.727	204.64	85.382	106.67	292.36	14.008	72.705	256.31	29.105	39.283	287.89	23.619	44.836	223.86	199.12	45.578	196.63	214.15	57.417	309.92	276.88	81.86	262.81	-196.26	1505.2	304.84	-241.36	1221.1	312.75
244	1.0125	-0.21998	1210.6	292.81	-110.21	1446.7	473	-138.27	1473	136.38	-105.25	1770	326.41	-32.002	998.35	409.65	-26.421	1005.2	178.19	-229.81	1020.8	327.86	-225.46	1024.3	234.68	-110.36	889.16	476.15	-100.29	894.09	106.87	-127.87	1066.1	453.03	-123.96	1083.3	144.02	-243.75	981.8	280.33	-158.43	691.23	456.51	-87.47	585.57	432.28	-157.26	601.74	438.44	-80.873	679.16	452.03	-142.81	495.01	426.01	-149.87	499.45	297.88	-302.49	383	424.85	-291.03	295.32	406.77	-349.37	322.68	416.11	-243.67	356.52	418.57	-450.92	188.82	380.33	-411.97	184.02	303.98	-504.97	193.25	327.95	-510.06	169.79	296.8	-519.75	168.54	358.11	NaN	NaN	NaN	-371.4	59.241	284.27	-317.51	39.728	330.98	-51.641	683.7	130.08	59.265	628.38	156.25	-6.4742	606.97	151.17	18.381	703.88	129.51	40.578	520.77	170.87	40.106	523.77	296.3	11.729	333.98	170.73	89.597	257.7	196.74	18.161	261.84	187.43	76.612	331.35	180.16	62.875	96.655	204.59	85.913	106.44	292.25	14.351	72.931	256.33	29.168	39.436	287.87	23.704	45	223.81	199.33	44.767	196.56	214.35	56.455	309.92	277.3	80.463	262.84	-190.73	1505.6	304.23	-235.62	1221.5	312.22
245	1.0167	5.4557	1211.3	292.62	-104.94	1447.3	472.57	-132.33	1473.5	135.94	-99.747	1770.5	326.06	-26.311	998.74	409.29	-20.678	1005.9	177.88	-224.11	1021.2	327.67	-219.76	1025	234.5	-104.06	889.02	475.71	-94.532	895.08	106.33	-122.21	1066.3	452.81	-118.11	1084	143.83	-238.03	982.36	280.01	-149.93	690.36	456.5	-77.73	585.46	432.86	-147.71	600.87	438.79	-72.209	679.22	452.31	-131.9	494.49	426.74	-138.14	498.34	298.38	-292.57	384.77	425.62	-282.51	296.88	407.69	-340.44	325.2	417.03	-234.2	357.35	419.38	-443.92	193.33	381.79	-405.05	187.58	305.18	-497.19	199.99	329.4	-503.3	177.03	297.97	-513.05	175.66	359.3	NaN	NaN	NaN	-368.61	61.368	284.86	-315.76	39.525	331.35	-46.521	684.39	129.33	64.136	628.74	155.86	-1.6387	607.5	150.48	23.558	704.39	129.09	44.784	520.93	170.39	44.216	523.96	295.86	14.377	334.26	170.3	91.579	257.37	196.51	20.197	262.09	187.08	79.22	331.12	179.81	63.251	96.606	204.54	86.382	106.26	292.13	14.65	73.124	256.33	29.229	39.58	287.86	23.781	45.143	223.76	199.52	44.078	196.48	214.53	55.633	309.91	277.67	79.241	262.85	-185.21	1506	303.64	-229.9	1222	311.7
246	1.0208	11.099	1211.9	292.46	-99.688	1447.9	472.15	-126.39	1474.1	135.52	-94.257	1771	325.71	-20.673	999.15	408.95	-14.983	1006.6	177.59	-218.46	1021.6	327.47	-214.11	1025.7	234.31	-97.799	888.91	475.28	-88.835	896.12	105.79	-116.62	1066.6	452.6	-112.29	1084.9	143.65	-232.36	982.94	279.68	-141.4	689.53	456.53	-67.94	585.43	433.44	-138.1	600.05	439.17	-63.511	679.34	452.61	-120.88	494.03	427.46	-126.29	497.31	298.85	-282.45	386.57	426.4	-273.78	298.5	408.57	-331.29	327.76	417.96	-224.52	358.24	420.16	-436.64	197.9	383.23	-397.89	191.22	306.35	-489.1	206.74	330.84	-496.2	184.27	299.14	-506.01	182.82	360.5	NaN	NaN	NaN	-365.48	63.662	285.5	-313.68	39.385	331.81	-41.535	685.08	128.58	68.864	629.08	155.44	3.0495	608.03	149.79	28.604	704.89	128.63	48.832	521.08	169.91	48.23	524.16	295.41	16.899	334.54	169.88	93.45	257.07	196.27	22.126	262.35	186.73	81.701	330.92	179.45	63.585	96.577	204.5	86.795	106.11	292.02	14.908	73.288	256.33	29.288	39.717	287.84	23.851	45.266	223.71	199.69	43.499	196.39	214.68	54.934	309.9	277.98	78.178	262.87	-179.69	1506.5	303.05	-224.21	1222.5	311.18
247	1.025	16.71	1212.6	292.32	-94.451	1448.6	471.75	-120.44	1474.7	135.12	-88.782	1771.6	325.36	-15.086	999.57	408.61	-9.3355	1007.3	177.3	-212.86	1022.1	327.28	-208.5	1026.5	234.14	-91.582	888.81	474.85	-83.196	897.18	105.26	-111.08	1066.8	452.4	-106.52	1085.7	143.47	-226.73	983.55	279.35	-132.82	688.75	456.6	-58.112	585.47	434.03	-128.45	599.28	439.56	-54.788	679.53	452.92	-109.76	493.64	428.16	-114.35	496.37	299.29	-272.14	388.4	427.18	-264.83	300.18	409.41	-321.92	330.35	418.87	-214.66	359.18	420.9	-429.07	202.52	384.64	-390.5	194.94	307.5	-480.75	213.46	332.27	-488.77	191.47	300.32	-498.64	189.96	361.7	NaN	NaN	NaN	-361.97	66.112	286.2	-311.24	39.327	332.34	-36.693	685.77	127.84	73.437	629.39	155	7.5769	608.55	149.12	33.51	705.37	128.16	52.717	521.23	169.42	52.129	524.36	294.95	19.297	334.83	169.47	95.216	256.79	196.02	23.949	262.62	186.4	84.058	330.73	179.08	63.881	96.564	204.46	87.158	106	291.91	15.126	73.427	256.31	29.345	39.844	287.83	23.915	45.371	223.66	199.83	43.019	196.29	214.81	54.344	309.88	278.24	77.257	262.87	-174.17	1506.9	302.49	-218.55	1223.1	310.66
248	1.0292	22.289	1213.3	292.21	-89.227	1449.2	471.36	-114.49	1475.4	134.74	-83.32	1772.2	325.02	-9.5479	999.98	408.29	-3.7334	1008.1	177.02	-207.32	1022.6	327.09	-202.95	1027.3	233.96	-85.409	888.74	474.44	-77.619	898.27	104.72	-105.6	1067.1	452.2	-100.79	1086.6	143.3	-221.15	984.18	279.02	-124.23	688.02	456.69	-48.259	585.59	434.62	-118.77	598.58	439.97	-46.05	679.78	453.24	-98.548	493.34	428.85	-102.37	495.55	299.7	-261.66	390.27	427.97	-255.7	301.92	410.19	-312.35	332.96	419.75	-204.63	360.18	421.6	-421.24	207.17	385.98	-382.87	198.71	308.59	-472.15	220.1	333.65	-481.04	198.56	301.48	-490.97	197.04	362.9	NaN	NaN	NaN	-358.06	68.7	286.94	-308.4	39.368	332.95	-32.002	686.46	127.12	77.846	629.66	154.54	11.933	609.06	148.46	38.268	705.81	127.66	56.435	521.37	168.94	55.894	524.56	294.49	21.575	335.11	169.08	96.879	256.53	195.77	25.67	262.89	186.09	86.294	330.54	178.71	64.143	96.567	204.43	87.477	105.91	291.82	15.309	73.543	256.29	29.401	39.963	287.82	23.973	45.46	223.61	199.96	42.623	196.19	214.93	53.847	309.87	278.46	76.46	262.87	-168.66	1507.5	301.94	-212.91	1223.7	310.16
249	1.0333	27.837	1213.9	292.12	-84.015	1449.9	470.99	-108.54	1476	134.39	-77.873	1772.7	324.69	-4.0566	1000.4	407.98	1.8251	1008.9	176.74	-201.83	1023	326.9	-197.43	1028.1	233.79	-79.284	888.69	474.03	-72.105	899.36	104.2	-100.18	1067.3	452	-95.113	1087.4	143.14	-215.62	984.82	278.68	-115.61	687.36	456.81	-38.393	585.81	435.19	-109.07	597.96	440.37	-37.305	680.1	453.56	-87.274	493.13	429.51	-90.373	494.87	300.08	-251.03	392.15	428.76	-246.38	303.71	410.92	-302.59	335.59	420.61	-194.45	361.24	422.25	-413.16	211.82	387.26	-375.03	202.51	309.64	-463.34	226.61	334.97	-473.02	205.5	302.61	-483.01	204	364.07	NaN	NaN	NaN	-353.71	71.405	287.74	-305.12	39.527	333.64	-27.468	687.13	126.43	82.085	629.89	154.07	16.11	609.54	147.83	42.874	706.21	127.16	59.985	521.49	168.46	59.506	524.75	294.02	23.735	335.39	168.71	98.445	256.28	195.52	27.295	263.16	185.8	88.413	330.37	178.35	64.377	96.582	204.4	87.757	105.84	291.73	15.458	73.641	256.27	29.455	40.072	287.81	24.026	45.536	223.57	200.08	42.3	196.08	215.03	53.427	309.86	278.64	75.771	262.88	-163.15	1508	301.4	-207.31	1224.3	309.66
